<svg id="visual" viewBox="0 0 900 600" width="900" height="600" xmlns="http://www.w3.org/2000/svg" xmlns:xlink="http://www.w3.org/1999/xlink" version="1.1"><g stroke-width="1" stroke-linejoin="bevel"><path d="M464 324L405 296L416 439Z" fill="#fafbff" stroke="#fafbff"></path><path d="M405 296L293 322L416 439Z" fill="#dedcf2" stroke="#dedcf2"></path><path d="M293 322L272 382L416 439Z" fill="#f3f4fc" stroke="#f3f4fc"></path><path d="M363 514L483 483L416 439Z" fill="#dbd9f1" stroke="#dbd9f1"></path><path d="M416 439L537 435L464 324Z" fill="#dbd9f1" stroke="#dbd9f1"></path><path d="M483 483L537 435L416 439Z" fill="#dedcf2" stroke="#dedcf2"></path><path d="M272 382L363 514L416 439Z" fill="#e6e7f7" stroke="#e6e7f7"></path><path d="M537 435L574 369L464 324Z" fill="#e6e7f7" stroke="#e6e7f7"></path><path d="M484 162L401 190L405 296Z" fill="#dedcf2" stroke="#dedcf2"></path><path d="M484 162L405 296L464 324Z" fill="#dedcf2" stroke="#dedcf2"></path><path d="M405 296L321 212L293 322Z" fill="#e3e3f5" stroke="#e3e3f5"></path><path d="M401 190L321 212L405 296Z" fill="#ecedf9" stroke="#ecedf9"></path><path d="M293 322L238 297L272 382Z" fill="#e6e7f7" stroke="#e6e7f7"></path><path d="M321 212L238 297L293 322Z" fill="#f3f4fc" stroke="#f3f4fc"></path><path d="M483 483L569 471L537 435Z" fill="#dbd9f1" stroke="#dbd9f1"></path><path d="M537 435L569 471L574 369Z" fill="#e6e7f7" stroke="#e6e7f7"></path><path d="M484 600L569 471L483 483Z" fill="#eff1fb" stroke="#eff1fb"></path><path d="M272 382L265 506L363 514Z" fill="#dbd9f1" stroke="#dbd9f1"></path><path d="M223 496L265 506L272 382Z" fill="#f3f4fc" stroke="#f3f4fc"></path><path d="M634 328L484 162L464 324Z" fill="#e6e7f7" stroke="#e6e7f7"></path><path d="M266 124L215 180L321 212Z" fill="#e0e0f4" stroke="#e0e0f4"></path><path d="M182 376L223 496L272 382Z" fill="#e0e0f4" stroke="#e0e0f4"></path><path d="M238 297L182 376L272 382Z" fill="#e3e3f5" stroke="#e3e3f5"></path><path d="M696 385L634 328L574 369Z" fill="#e9eaf8" stroke="#e9eaf8"></path><path d="M574 369L634 328L464 324Z" fill="#e0e0f4" stroke="#e0e0f4"></path><path d="M286 600L363 514L265 506Z" fill="#fafbff" stroke="#fafbff"></path><path d="M286 600L410 600L363 514Z" fill="#e3e3f5" stroke="#e3e3f5"></path><path d="M363 514L410 600L483 483Z" fill="#fafbff" stroke="#fafbff"></path><path d="M410 600L484 600L483 483Z" fill="#ecedf9" stroke="#ecedf9"></path><path d="M186 600L286 600L265 506Z" fill="#dedcf2" stroke="#dedcf2"></path><path d="M266 124L321 212L365 64Z" fill="#f3f4fc" stroke="#f3f4fc"></path><path d="M321 212L215 180L238 297Z" fill="#eff1fb" stroke="#eff1fb"></path><path d="M238 297L115 325L182 376Z" fill="#e9eaf8" stroke="#e9eaf8"></path><path d="M635 174L524 113L484 162Z" fill="#e6e7f7" stroke="#e6e7f7"></path><path d="M484 162L365 64L401 190Z" fill="#f6f8fe" stroke="#f6f8fe"></path><path d="M365 64L321 212L401 190Z" fill="#dbd9f1" stroke="#dbd9f1"></path><path d="M569 471L696 385L574 369Z" fill="#f3f4fc" stroke="#f3f4fc"></path><path d="M634 328L635 174L484 162Z" fill="#eff1fb" stroke="#eff1fb"></path><path d="M721 507L696 385L569 471Z" fill="#dbd9f1" stroke="#dbd9f1"></path><path d="M696 385L689 295L634 328Z" fill="#e3e3f5" stroke="#e3e3f5"></path><path d="M215 180L115 325L238 297Z" fill="#e9eaf8" stroke="#e9eaf8"></path><path d="M182 376L125 499L223 496Z" fill="#dedcf2" stroke="#dedcf2"></path><path d="M223 496L186 600L265 506Z" fill="#e3e3f5" stroke="#e3e3f5"></path><path d="M685 219L635 174L634 328Z" fill="#ecedf9" stroke="#ecedf9"></path><path d="M524 113L365 64L484 162Z" fill="#e6e7f7" stroke="#e6e7f7"></path><path d="M93 394L125 499L182 376Z" fill="#dedcf2" stroke="#dedcf2"></path><path d="M484 600L618 600L569 471Z" fill="#f6f8fe" stroke="#f6f8fe"></path><path d="M115 325L93 394L182 376Z" fill="#dedcf2" stroke="#dedcf2"></path><path d="M689 295L685 219L634 328Z" fill="#e0e0f4" stroke="#e0e0f4"></path><path d="M769 272L685 219L689 295Z" fill="#eff1fb" stroke="#eff1fb"></path><path d="M125 499L186 600L223 496Z" fill="#ecedf9" stroke="#ecedf9"></path><path d="M635 174L560 61L524 113Z" fill="#e9eaf8" stroke="#e9eaf8"></path><path d="M524 113L427 0L365 64Z" fill="#fafbff" stroke="#fafbff"></path><path d="M633 0L560 61L635 174Z" fill="#e9eaf8" stroke="#e9eaf8"></path><path d="M618 600L721 507L569 471Z" fill="#ecedf9" stroke="#ecedf9"></path><path d="M696 385L769 272L689 295Z" fill="#eff1fb" stroke="#eff1fb"></path><path d="M292 0L266 124L365 64Z" fill="#ecedf9" stroke="#ecedf9"></path><path d="M292 0L226 63L266 124Z" fill="#ecedf9" stroke="#ecedf9"></path><path d="M266 124L226 63L215 180Z" fill="#dbd9f1" stroke="#dbd9f1"></path><path d="M215 180L62 237L115 325Z" fill="#e6e7f7" stroke="#e6e7f7"></path><path d="M125 499L135 600L186 600Z" fill="#eff1fb" stroke="#eff1fb"></path><path d="M0 600L135 600L125 499Z" fill="#f6f8fe" stroke="#f6f8fe"></path><path d="M618 600L692 600L721 507Z" fill="#ecedf9" stroke="#ecedf9"></path><path d="M497 0L427 0L524 113Z" fill="#dbd9f1" stroke="#dbd9f1"></path><path d="M92 106L62 237L215 180Z" fill="#e9eaf8" stroke="#e9eaf8"></path><path d="M0 285L0 399L93 394Z" fill="#f6f8fe" stroke="#f6f8fe"></path><path d="M828 417L769 272L696 385Z" fill="#fafbff" stroke="#fafbff"></path><path d="M730 67L633 0L635 174Z" fill="#e3e3f5" stroke="#e3e3f5"></path><path d="M560 61L497 0L524 113Z" fill="#f6f8fe" stroke="#f6f8fe"></path><path d="M427 0L292 0L365 64Z" fill="#f6f8fe" stroke="#f6f8fe"></path><path d="M0 285L93 394L115 325Z" fill="#dbd9f1" stroke="#dbd9f1"></path><path d="M93 394L0 505L125 499Z" fill="#ecedf9" stroke="#ecedf9"></path><path d="M139 0L92 106L226 63Z" fill="#e6e7f7" stroke="#e6e7f7"></path><path d="M226 63L92 106L215 180Z" fill="#ecedf9" stroke="#ecedf9"></path><path d="M62 237L0 285L115 325Z" fill="#f6f8fe" stroke="#f6f8fe"></path><path d="M0 228L0 285L62 237Z" fill="#f6f8fe" stroke="#f6f8fe"></path><path d="M796 600L802 514L721 507Z" fill="#e0e0f4" stroke="#e0e0f4"></path><path d="M721 507L828 417L696 385Z" fill="#dbd9f1" stroke="#dbd9f1"></path><path d="M802 514L828 417L721 507Z" fill="#e3e3f5" stroke="#e3e3f5"></path><path d="M292 0L194 0L226 63Z" fill="#f3f4fc" stroke="#f3f4fc"></path><path d="M0 399L0 505L93 394Z" fill="#e0e0f4" stroke="#e0e0f4"></path><path d="M92 106L0 228L62 237Z" fill="#f3f4fc" stroke="#f3f4fc"></path><path d="M730 67L635 174L685 219Z" fill="#eff1fb" stroke="#eff1fb"></path><path d="M560 61L633 0L497 0Z" fill="#e9eaf8" stroke="#e9eaf8"></path><path d="M769 272L793 166L685 219Z" fill="#fafbff" stroke="#fafbff"></path><path d="M900 237L793 166L769 272Z" fill="#f3f4fc" stroke="#f3f4fc"></path><path d="M793 166L730 67L685 219Z" fill="#e6e7f7" stroke="#e6e7f7"></path><path d="M692 600L796 600L721 507Z" fill="#e6e7f7" stroke="#e6e7f7"></path><path d="M900 422L900 332L828 417Z" fill="#e9eaf8" stroke="#e9eaf8"></path><path d="M194 0L139 0L226 63Z" fill="#fafbff" stroke="#fafbff"></path><path d="M92 106L0 69L0 228Z" fill="#e0e0f4" stroke="#e0e0f4"></path><path d="M900 237L809 136L793 166Z" fill="#dbd9f1" stroke="#dbd9f1"></path><path d="M793 166L809 136L730 67Z" fill="#e3e3f5" stroke="#e3e3f5"></path><path d="M0 505L0 600L125 499Z" fill="#ecedf9" stroke="#ecedf9"></path><path d="M794 0L719 0L730 67Z" fill="#dbd9f1" stroke="#dbd9f1"></path><path d="M730 67L719 0L633 0Z" fill="#dbd9f1" stroke="#dbd9f1"></path><path d="M900 422L828 417L900 507Z" fill="#dedcf2" stroke="#dedcf2"></path><path d="M828 417L900 332L769 272Z" fill="#e9eaf8" stroke="#e9eaf8"></path><path d="M900 507L828 417L802 514Z" fill="#f6f8fe" stroke="#f6f8fe"></path><path d="M0 0L0 69L92 106Z" fill="#e3e3f5" stroke="#e3e3f5"></path><path d="M900 332L900 237L769 272Z" fill="#dbd9f1" stroke="#dbd9f1"></path><path d="M809 136L794 0L730 67Z" fill="#dedcf2" stroke="#dedcf2"></path><path d="M900 600L900 507L802 514Z" fill="#e9eaf8" stroke="#e9eaf8"></path><path d="M900 68L794 0L809 136Z" fill="#dbd9f1" stroke="#dbd9f1"></path><path d="M796 600L900 600L802 514Z" fill="#e0e0f4" stroke="#e0e0f4"></path><path d="M139 0L0 0L92 106Z" fill="#eff1fb" stroke="#eff1fb"></path><path d="M900 237L900 68L809 136Z" fill="#e3e3f5" stroke="#e3e3f5"></path><path d="M900 68L900 0L794 0Z" fill="#f3f4fc" stroke="#f3f4fc"></path></g></svg>